<svg xmlns="http://www.w3.org/2000/svg" width="125" height="154"><path fill="#66856c" d="M17 4c9.99 3.65 15.53 18.43 19.82 27.37 4.78 10.61 7.93 21.53 9.83 32.99 1.2 7.26 1.2 7.26 2.35 10.64 2.01-2.94 2.6-6.59 3.53-10 1.26-4.58 3-8.6 5.28-12.75.34-.62.69-1.24 1.04-1.88C64.5 40.35 72.07 28.24 82 22l2 1c-.96 2.35-.96 2.35-2.66 5.48-.3.57-.3.57-1.84 3.45-.33.6-.65 1.21-.99 1.83-1.67 3.09-3.31 6.21-4.94 9.33-.32.6-.64 1.21-.97 1.84C69.21 51.45 66.43 58.06 64 65c-.43 1.19-.87 2.37-1.32 3.6C59.3 78.21 56.92 87.99 55 98c-.18.86-.35 1.73-.53 2.62-.63 4.51-.66 8.97-.72 13.52-.03 1.98-.06 3.95-.1 5.93-.04 3.1-.09 6.21-.13 9.31-.04 3-.09 6.01-.14 9.01l-.03 2.83c0 .43 0 .43-.05 2.61l-.03 2.3C53 148 53 148 51 150c-3.01.32-5.12.49-7.81-1-3.31-5.57-2.35-14.01-2.31-20.31v-2.82c.04-5.5.28-10.9.87-16.37 1.02-10.29-.9-19.89-2.94-29.94-.16-.8-.32-1.61-.48-2.44-4.76-23.8-11.23-46.73-20.61-69.17C17 6 17 6 17 4"/><path fill="#66866d" d="M106 46l2 1c-1.13 1.84-1.13 1.84-3.12 4.38-19.65 26.23-30.64 53.42-35.2 85.86-.17 1.22-.35 2.45-.54 3.71-.15 1.1-.3 2.19-.45 3.32-.73 2.9-1.22 4.07-3.69 5.73-3.63-.19-3.63-.19-7-1-5-10 2.31-32.89 5.5-43.04 7.6-22.31 20.54-45.11 40.26-58.89.74-.35 1.48-.71 2.24-1.07M4 60c3.78.28 5.46 2.16 7.87 4.91 4.12 4.84 7.28 9.93 10.25 15.53.52.96 1.03 1.92 1.57 2.92C33.67 102.51 39.96 126.24 39 148l-2 2c-3-.12-3-.12-6-1-1.89-2.91-2.47-5.81-3.04-9.2-.19-1.03-.37-2.06-.56-3.13-.19-1.1-.39-2.21-.59-3.36-4.44-23.99-11.33-47.44-22-69.45C4 62 4 62 4 60"/><path fill="#67876e" d="M116 72c-1.11 4.05-3.43 7.28-5.73 10.72-5.86 8.8-10.9 17.96-15.52 27.47-.3.61-.6 1.22-.9 1.85-4.66 9.64-8.38 19.44-11.1 29.81-.74 2.58-1.4 4.83-2.75 7.15-3.6 1.33-3.6 1.33-7 1-2.24-3.35-2.15-4.56-1.52-8.41 5.35-26.53 18.58-52.51 40.96-68.7C114 72 114 72 116 72"/><path fill="#65856c" d="M121 106c-1.04 3.54-3.72 6.23-6.06 9-7.42 8.97-14.19 18.03-20.02 28.1-1.49 2.57-2.81 4.79-4.92 6.9-2.56.19-2.56.19-5 0-1-1-1-1-1.38-3.94.25-10.74 9.85-21.35 16.87-28.65 5.83-5.46 12.2-11.41 20.51-11.41"/></svg>