<svg xmlns="http://www.w3.org/2000/svg" width="108" height="172"><path fill="#64836a" d="M16 4c3.49 2.73 5.64 5.76 6.88 10L24 16c3.81-.37 3.81-.37 5.96-.79C32 15 32 15 34.88 16.19c2.28 1.95 3.08 3.03 4.12 5.81-.04 2-.15 4-.31 6-.15 7.06 1.8 11.63 5.57 17.43.58.52 1.15 1.04 1.74 1.57 1.54-2.1 1.74-4.5 2.27-7.02.96-3.93 2.47-5.63 5.73-7.98 3.72-1.24 5.25-1.35 8.81.31C65 34 65 34 66 36c.92 10.31-3.46 17.8-9.51 25.87C55 64 55 64 54 67c.56 2.3.56 2.3 1.44 4.88.97 2.84 1.56 4.92 1.53 7.94L57 82h2l.31-2.44c1.37-7.11 5.14-13.02 10.87-17.45 3.06-1.86 5.25-2.3 8.82-2.11 4.27 2.33 4.27 2.33 6 5 1.25 4.71.48 8.76-1.94 12.94-4.77 6.75-9.84 12.88-17.12 16.87-2.72 1.91-3.78 3.3-4.38 6.59-1.14 13.78-1.14 13.78.44 18.6 2.65-2.02 3.99-4.61 5.56-7.5C73.04 103.27 80.25 93.97 91 91c4.74-.46 7.82.05 11.56 3.06 2.2 4.5 2.33 8.33.74 12.99C96.03 122.82 78.11 132.03 63 139h-2c-.41 2.48-.71 4.88-.94 7.38-1.7 15.58-1.7 15.58-5.44 20.39C53 168 53 168 49.44 167.88 46 167 46 167 44 164c.32-4.11 1.01-8.08 1.75-12.14.11-.68.22-1.36.34-2.06.24-1.38.49-2.77.78-4.15.31-2.04.31-2.04.13-5.65-4.27-4.03-9.96-5.7-15.38-7.81C18.49 126.88 18.49 126.88 14 121c-1.24-3.71-1.54-7.14-1-11 2.04-3.19 3.53-3.85 7.12-5 9.53 0 17.28 5.49 23.88 12 .91 1.45 1.82 2.9 2.72 4.35.75.88 1.5 1.75 2.28 2.65.84-3.32 1.08-6.04 1.19-9.44.07-.97.15-1.93.23-2.93.12-2.67.13-5.01-.42-7.63-2.45-1.45-2.45-1.45-6-2-1.45-.49-2.89-1.01-4.31-1.55-.77-.29-1.53-.57-2.32-.87-.78-.29-1.57-.59-2.37-.89-.78-.29-1.56-.57-2.37-.86-5.82-2.21-10.79-4.71-14.07-10.27-.72-3.3-.59-5.33.44-8.56 2.84-3.27 4.5-3.93 8.81-4.5 6.51.36 11.26 3.5 15.81 7.94.79.51 1.57 1.03 2.38 1.56-.02-5.08-1.19-9.79-4-14-1.8-.74-1.8-.74-3.96-1.25-.78-.19-1.56-.39-2.37-.6l-4.93-1.17C25.96 65.77 22.61 64.57 19 61c-1.59-3.19-1.38-6.53-1-10 1.06-1.94 1.06-1.94 3-3 4.54-1.22 7.08-1.17 11.19.94.46.17.46.17 2.81 1.06-1.15-3.94-2.23-6.95-5.86-9.11-2.03-.71-4.07-1.31-6.14-1.89-3.43-1.42-5.52-2.44-7.94-5.25C14 31 14 31 14.88 27.62L15 24c-2.1-2.15-4.31-3.75-6.8-5.42C6 17 6 17 4 14c-.66-6.15-.66-6.15 1.5-8.94C9.09 3.54 12.24 2.98 16 4"/></svg>